<svg width="17" height="16" fill="none" xmlns="http://www.w3.org/2000/svg"><g clip-path="url(#clip0)"><path d="M7.933.39a1 1 0 011.133 0l.576.395a1 1 0 00.749.16l.687-.128a1 1 0 011.035.46l.365.597a1 1 0 00.62.45l.679.163a1 1 0 01.758.842l.09.692a1 1 0 00.384.663l.554.425a1 1 0 01.35 1.078l-.198.67a1 1 0 00.08.761l.333.614a1 1 0 01-.118 1.127l-.454.531a1 1 0 00-.237.728l.055.697a1 1 0 01-.566.98l-.631.302a1 1 0 00-.512.569l-.233.658a1 1 0 01-.917.666l-.698.018a1 1 0 00-.7.312l-.48.506a1 1 0 01-1.109.236l-.645-.267a1 1 0 00-.766 0l-.645.267a1 1 0 01-1.109-.236l-.48-.506a1 1 0 00-.7-.312l-.698-.018a1 1 0 01-.917-.666l-.233-.659a1 1 0 00-.512-.568l-.63-.301a1 1 0 01-.567-.981l.055-.697a1 1 0 00-.237-.728L.99 9.36a1 1 0 01-.118-1.127l.333-.614a1 1 0 00.08-.761l-.198-.67a1 1 0 01.35-1.078l.554-.425a1 1 0 00.383-.663l.091-.692a1 1 0 01.758-.842l.68-.163a1 1 0 00.619-.45l.365-.596A1 1 0 015.922.817l.687.127a1 1 0 00.749-.159L7.933.39z" fill="#5B91F5"/><path d="M11.25 6.5L7.583 10 5.75 8.25" stroke="#fff" stroke-width="2" stroke-linecap="round" stroke-linejoin="round"/></g><defs><clipPath id="clip0"><path fill="#fff" transform="translate(.5)" d="M0 0h16v16H0z"/></clipPath></defs></svg>