<svg width="17" height="16" fill="none" xmlns="http://www.w3.org/2000/svg"><g clip-path="url(#clip0)"><path d="M4.013 6.5A4.494 4.494 0 018.534 2c2.475.019 4.454 2.075 4.454 4.557V7c0 2.239.468 3.537.88 4.247a.5.5 0 01-.43.753H3.563a.5.5 0 01-.43-.753c.412-.71.88-2.009.88-4.247v-.5zM6.5 12v.5a2 2 0 004 0V12" stroke="#1F1F1F" stroke-linecap="round" stroke-linejoin="round"/><rect x="10" y="2" width="6" height="6" rx="3" fill="#1F1F1F"/></g><defs><clipPath id="clip0"><path fill="#fff" transform="translate(.5)" d="M0 0h16v16H0z"/></clipPath></defs></svg>