<svg width="194" height="48" fill="none" xmlns="http://www.w3.org/2000/svg"><g clip-path="url(#clip0)" stroke="#EEE"><path d="M191 12.77H.927" stroke-width=".5" stroke-dasharray="2 2"/><path d="M3.219 26.015l10.357-13.403a1 1 0 011.643.087l4.239 6.889a1 1 0 00.851.476h9.424a1 1 0 00.88-.526l4.265-7.92a1 1 0 01.208-.266l6.587-5.988a1 1 0 011.203-.108l9.868 6.168a1 1 0 01.131.097l15.86 13.957a1 1 0 001.26.05l6.296-4.722a1 1 0 011.508.38l7.256 15.723a1 1 0 00.512.5l21.409 9.244a1 1 0 001.363-.66l5.179-19.48a1 1 0 01.615-.68l14.991-5.62c.253-.096.458-.29.566-.538l6.069-13.959a1 1 0 011.258-.54l7.041 2.555c.22.08.462.08.682 0l6.893-2.502a1 1 0 011.309.688l3.332 12.77a1 1 0 001.532.574L168.417 12a1.001 1.001 0 011.357.213l6.134 7.944a1 1 0 001.335.229l13.775-8.92"/><circle cx="190.941" cy="11.27" r="1.058" fill="#fff"/></g><defs><clipPath id="clip0"><path fill="#fff" transform="translate(.926 .887)" d="M0 0h192.574v46.226H0z"/></clipPath></defs></svg>