<svg width="15" height="14" fill="none" xmlns="http://www.w3.org/2000/svg"><mask id="a" maskUnits="userSpaceOnUse" x=".635" y=".988" width="14" height="13" fill="#000"><path fill="#fff" d="M.635.988h14v13h-14z"/><path fill-rule="evenodd" clip-rule="evenodd" d="M12.425 7.13L7.84 11.713c-.085.085-.332.297-.332.297s-.224-.212-.309-.297L2.497 7.011a2.943 2.943 0 01.114-4.27c1.184-1.066 3.038-.9 4.164.227l.744.744.862-.862a2.942 2.942 0 014.27.115c1.066 1.184.9 3.037-.226 4.164zm-7.007.83c.117.31.885.304 1.714-.011.83-.316 1.406-.822 1.289-1.132-.118-.309-.886-.304-1.715.011-.83.316-1.406.822-1.288 1.132zM8.72 9.043c-.626.592-1.313.882-1.534.649-.22-.234.109-.903.735-1.495.627-.592 1.313-.882 1.534-.648.22.234-.108.903-.735 1.494zM7.208 5.295c-.082.309.52.738 1.348.96.826.221 1.564.151 1.646-.157.083-.309-.52-.738-1.347-.96-.827-.221-1.564-.151-1.647.157z"/></mask><path d="M7.84 11.714l-.708-.707.708.707zm4.585-4.585l.707.707-.707-.707zm-4.917 4.883l-.687.725a1 1 0 001.34.032l-.653-.758zm-.309-.298l-.707.707.707-.707zM2.497 7.011l-.708.707.708-.707zm-.653-.99l.929-.371-.93.37zm-.208-1.17l1 .027-1-.026zm.27-1.155l.908.42-.908-.42zm.705-.955l.668.744h.002l-.67-.744zm4.164.227l-.707.707.707-.707zm.744.744l-.707.707a1 1 0 001.415 0l-.708-.707zm.862-.862l-.707-.707.707.707zm.992-.653l.37.93-.37-.93zm1.168-.208l-.027 1 .027-1zm1.156.271l.42-.908-.42.908zm.954.705l-.744.668.001.001.743-.669zM7.132 7.949l-.355-.935.355.935zm-1.714.01l-.935.356.935-.355zm1.288-1.13l-.355-.935.355.934zm.481 2.863l-.727.686.727-.686zm.735-1.495l-.687-.727.687.727zm.634-1.942l.258-.966-.258.966zm-1.348-.96l-.966-.258.966.258zm2.994.803l.966.258-.966-.258zM8.547 12.42l4.585-4.585-1.414-1.414-4.586 4.585 1.415 1.414zm-1.039-.41l.654.758v-.001l.003-.002.009-.008.03-.027.1-.087c.067-.059.174-.154.243-.223l-1.415-1.414-.003.004a1.017 1.017 0 01-.05.046 9.367 9.367 0 01-.224.197l.653.758zm-1.016.41a15.335 15.335 0 00.291.28l.027.026.008.008.002.002.688-.726.688-.725-.002-.002-.007-.007-.026-.025-.084-.08a13.721 13.721 0 01-.17-.165L6.492 12.42zM1.79 7.718l4.703 4.703 1.415-1.414-4.703-4.703L1.79 7.718zM.915 6.39c.198.498.496.95.874 1.328l1.415-1.414a1.942 1.942 0 01-.431-.654l-1.858.74zM.636 4.825c-.014.535.08 1.068.279 1.565l1.858-.74a1.942 1.942 0 01-.138-.772L.636 4.825zM1 3.276a3.943 3.943 0 00-.363 1.549l2 .053c.007-.263.067-.523.178-.762L1 3.276zm.944-1.279c-.398.358-.72.793-.944 1.28l1.815.839c.11-.24.27-.454.465-.63l-1.337-1.49zm5.54.264C6.032.81 3.573.529 1.943 1.998L3.28 3.484c.736-.663 1.985-.611 2.787.191l1.415-1.414zm.744.744l-.744-.744-1.415 1.414.744.744 1.415-1.414zm-.553-.862l-.862.862 1.415 1.414.861-.862-1.414-1.414zm1.328-.874a3.93 3.93 0 00-1.328.874l1.414 1.414c.187-.186.41-.333.655-.43l-.74-1.858zm1.566-.28a3.943 3.943 0 00-1.566.28l.74 1.857c.246-.097.508-.144.772-.137l.054-2zm1.548.363A3.942 3.942 0 0010.568.99l-.054 2c.264.006.524.067.763.178l.84-1.816zm1.28.945a3.942 3.942 0 00-1.28-.945l-.839 1.816c.24.11.454.269.63.465l1.488-1.336zm-.264 5.54c1.45-1.452 1.732-3.91.263-5.541l-1.487 1.338c.663.737.612 1.986-.19 2.788l1.414 1.414zm-6.355-.823a2.406 2.406 0 01-.775.174c-.086.001-.085-.011-.032.009.052.02.273.12.382.407l-1.869.711c.168.443.53.658.784.754a2.1 2.1 0 00.748.12c.457-.004.976-.117 1.473-.306l-.711-1.869zm.71.159a.694.694 0 01.014-.559c.026-.05.035-.041-.03.015a2.406 2.406 0 01-.694.385l.71 1.87c.497-.19.96-.45 1.304-.752a2.1 2.1 0 00.48-.586c.126-.24.253-.642.084-1.084l-1.869.71zm-.425.59c.332-.126.612-.173.775-.174.085-.001.085.011.031-.009a.694.694 0 01-.382-.407l1.87-.711c-.169-.443-.53-.658-.785-.754a2.1 2.1 0 00-.747-.12c-.458.004-.977.117-1.473.306l.71 1.87zm-.71-.159c.11.288.011.51-.014.559-.027.05-.036.041.029-.015.122-.108.362-.258.695-.385l-.711-1.87c-.497.19-.96.45-1.304.752a2.1 2.1 0 00-.48.586c-.126.24-.252.642-.084 1.084l1.87-.71zm.108 2.774c.324.343.738.403 1.006.394.271-.01.523-.088.726-.174.413-.175.84-.472 1.216-.828L8.035 8.316c-.25.236-.48.38-.622.44-.075.031-.075.019-.015.017a.702.702 0 01.516.232L6.46 10.378zm.775-2.908c-.376.356-.697.765-.895 1.168a2.05 2.05 0 00-.215.714c-.024.268.012.684.335 1.026l1.454-1.373c.214.226.208.47.203.529-.006.06-.018.059.018-.014a2.31 2.31 0 01.474-.596L7.235 7.47zm2.948-.608a1.304 1.304 0 00-1.006-.393c-.27.01-.522.088-.725.173-.413.175-.84.472-1.217.828L8.61 8.924c.25-.236.48-.38.622-.44.074-.03.075-.018.015-.016a.702.702 0 01-.517-.232l1.454-1.374zM9.408 9.77c.377-.356.698-.764.896-1.167.097-.198.19-.444.214-.714a1.3 1.3 0 00-.335-1.027L8.73 8.236a.702.702 0 01-.202-.53c.005-.06.018-.058-.018.015a2.31 2.31 0 01-.474.595L9.408 9.77zm-.594-4.48a2.287 2.287 0 01-.693-.296c-.065-.046-.054-.053-.02-.002.032.05.154.263.073.563l-1.932-.517a1.3 1.3 0 00.193 1.06c.15.226.347.398.526.525.364.26.838.465 1.336.599l.517-1.932zm.422.55c.08-.3.293-.425.345-.451.055-.027.061-.016-.018-.008a2.287 2.287 0 01-.749-.091l-.517 1.932c.498.133 1.011.192 1.456.15a2.06 2.06 0 00.718-.192c.24-.12.575-.368.697-.823L9.236 5.84zm-.64.265c.329.088.57.208.693.296.066.046.055.053.02.002a.704.704 0 01-.073-.563l1.932.517a1.302 1.302 0 00-.192-1.06 2.061 2.061 0 00-.526-.525c-.364-.26-.838-.465-1.336-.599l-.518 1.932zm-.422-.55a.704.704 0 01-.345.451c-.055.027-.061.016.019.008.15-.014.42.003.748.091l.518-1.932c-.498-.133-1.012-.192-1.457-.15a2.06 2.06 0 00-.718.192c-.24.12-.575.368-.697.823l1.932.517z" fill="#E2E2E2" mask="url(#a)"/></svg>