<svg width="74" height="14" fill="none" xmlns="http://www.w3.org/2000/svg"><path d="M3.992 13.39h2.556V2.86h3.546V.61H.5v2.25h3.492v10.53zm8.044 0h2.574V.61h-2.574v12.78zm5.43 0h2.502V9.016h1.98c2.808 0 4.698-1.35 4.698-4.158C26.646 2.41 25.296.61 22.2.61h-4.734v12.78zm2.502-6.606V2.86h1.836c1.458 0 2.214.774 2.214 1.962 0 1.17-.756 1.962-2.34 1.962h-1.71zm12.547 6.768c2.07 0 4.536-1.152 4.536-3.96 0-2.466-1.764-3.042-3.978-3.906-1.476-.576-2.16-.9-2.16-1.692.018-.81.666-1.278 1.548-1.278.792 0 1.728.396 2.79 1.26l1.476-1.908c-1.278-1.044-2.736-1.62-4.32-1.62-2.286.018-4.104 1.602-4.104 3.654 0 2.43 1.926 3.312 3.87 3.978 1.548.54 2.214.882 2.214 1.818 0 .792-.594 1.35-1.818 1.35-1.008 0-2.232-.522-3.186-1.602l-1.53 1.872c1.35 1.386 3.024 2.034 4.662 2.034zm6.625-.162h2.52V4.948h.036l5.67 8.442h2.538V.61h-2.502v8.622h-.036L41.624.61H39.14v12.78zm13.553 0h8.55v-2.25h-6.049V8.152h4.536V5.938h-4.535V2.86h5.67V.61h-8.172v12.78zm10.757 0h2.502V9.016h1.458l2.862 4.374h3.006l-3.204-4.68c1.764-.576 2.664-1.908 2.664-3.852C72.738 2.41 71.37.61 68.292.61H63.45v12.78zm2.502-6.606V2.86h1.944c1.458 0 2.232.774 2.232 1.962 0 1.17-.792 1.962-2.34 1.962h-1.836z" fill="#1F1F1F"/></svg>