<svg width="17" height="16" fill="none" xmlns="http://www.w3.org/2000/svg"><path d="M10.5 8l-3-2v4l3-2z" stroke="#AFAFAF" stroke-linecap="round" stroke-linejoin="round"/><path d="M2 8c0 1.86.192 2.95.338 3.512a.994.994 0 00.602.68c2.093.805 5.56.783 5.56.783s3.467.022 5.56-.782a.994.994 0 00.602-.681C14.808 10.95 15 9.86 15 8s-.192-2.95-.338-3.512a.994.994 0 00-.602-.68c-2.093-.805-5.56-.782-5.56-.782s-3.467-.023-5.56.781a.995.995 0 00-.602.681C2.192 5.05 2 6.14 2 8z" stroke="#AFAFAF" stroke-linecap="round" stroke-linejoin="round"/></svg>