<svg width="35" height="25" fill="none" xmlns="http://www.w3.org/2000/svg"><rect x="1.125" y=".93" width="33" height="23" rx="3.5" fill="#1F72CD" stroke="#E2E2E2"/><path fill-rule="evenodd" clip-rule="evenodd" d="M6.72 8.93l-3.18 7.246h3.807l.472-1.155H8.9l.472 1.155h4.191v-.881l.374.881h2.168l.374-.9v.9h8.718l1.06-1.125.992 1.125 4.478.01-3.191-3.613 3.19-3.643h-4.407l-1.032 1.104-.962-1.104h-9.483l-.815 1.87-.833-1.87h-3.8v.852L9.97 8.93H6.72zm.737 1.029h1.856l2.11 4.914V9.959h2.034l1.63 3.523 1.502-3.523h2.023v5.2h-1.231l-.01-4.075-1.795 4.075h-1.101l-1.805-4.075v4.075h-2.533l-.48-1.166H7.062l-.479 1.165H5.226l2.231-5.2zm17.288 0h-5.007v5.197h4.93l1.588-1.723 1.53 1.723h1.601l-2.326-2.584 2.326-2.613h-1.53l-1.581 1.702-1.531-1.702zm-16.385.88l-.855 2.076h1.709L8.36 10.84zm12.615 1.146v-.95h3.123l1.363 1.518-1.423 1.526h-3.063v-1.036h2.73v-1.058h-2.73z" fill="#fff"/></svg>