<svg width="35" height="25" fill="none" xmlns="http://www.w3.org/2000/svg"><rect x=".875" y=".93" width="33" height="23" rx="3.5" fill="#fff" stroke="#D9D9D9"/><mask id="a" style="mask-type:alpha" maskUnits="userSpaceOnUse" x="9" y="4" width="17" height="17"><path d="M9.174 12.268a8 8 0 008.001 8 8 8 0 100-16 8 8 0 00-8.001 8z" fill="url(#paint0_linear)"/></mask><g mask="url(#a)"><path d="M9.174 12.268a8 8 0 008.001 8 8 8 0 100-16 8 8 0 00-8.001 8z" fill="url(#paint1_linear)"/><path d="M25.174 10.562h-16v3.424h16v-3.424zm0 6.847h-16v2.857h16v-2.857zm0-10.27h-16v-2.87h16v2.87z" fill="#000"/><path d="M25.174 10.562h-16v3.424h16v-3.424zm0-3.424h-16V4.27h16v2.87z" fill="url(#paint2_radial)"/><path d="M25.174 10.562h-16v3.424h16v-3.424zm0-3.424h-16V4.27h16v2.87z" fill="url(#paint3_radial)"/></g><defs><radialGradient id="paint2_radial" cx="0" cy="0" r="1" gradientUnits="userSpaceOnUse" gradientTransform="translate(19.053 9.763) scale(4.85111)"><stop stop-color="#363738"/><stop offset="1"/></radialGradient><radialGradient id="paint3_radial" cx="0" cy="0" r="1" gradientUnits="userSpaceOnUse" gradientTransform="translate(19.053 9.763) scale(4.85111)"><stop stop-color="#363738"/><stop offset="1"/></radialGradient><linearGradient id="paint0_linear" x1="9.174" y1="12.273" x2="25.174" y2="12.273" gradientUnits="userSpaceOnUse"><stop stop-color="#FAA61A"/><stop offset="1" stop-color="#FFE100"/></linearGradient><linearGradient id="paint1_linear" x1="9.174" y1="12.273" x2="25.174" y2="12.273" gradientUnits="userSpaceOnUse"><stop stop-color="#FAA61A"/><stop offset="1" stop-color="#FFE100"/></linearGradient></defs></svg>