<svg width="35" height="25" fill="none" xmlns="http://www.w3.org/2000/svg"><rect x="1.125" y=".93" width="33" height="23" rx="3.5" fill="#fff" stroke="#E2E2E2"/><path d="M14.625 23.43l19-5.75v2.75a3 3 0 01-3 3h-16z" fill="#FD6020"/><path fill-rule="evenodd" clip-rule="evenodd" d="M30.019 9.54c1.045 0 1.62.484 1.62 1.397.052.699-.418 1.29-1.045 1.397l1.41 1.988h-1.097l-1.202-1.934h-.104v1.934h-.889V9.541h1.307zm-.418 2.203h.26c.576 0 .837-.268.837-.752 0-.43-.261-.698-.836-.698H29.6v1.45zm-3.973 2.58h2.51v-.807h-1.621v-1.29h1.568v-.805h-1.568v-1.075h1.62v-.805h-2.509v4.781zm-2.613-1.559l-1.202-3.223h-.94l1.933 4.889h.47l1.934-4.89h-.94l-1.255 3.224zm-10.61-.806c0 1.343 1.046 2.472 2.352 2.472.418 0 .784-.108 1.15-.269v-1.075c-.261.323-.627.538-1.045.538a1.493 1.493 0 01-1.516-1.505v-.107a1.591 1.591 0 011.464-1.666c.418 0 .836.215 1.097.538V9.809c-.313-.215-.732-.268-1.097-.268-1.36-.108-2.405 1.02-2.405 2.417zm-1.62-.59c-.522-.216-.68-.323-.68-.592.053-.322.314-.59.628-.537.261 0 .523.161.732.376l.47-.645c-.366-.322-.836-.537-1.306-.537-.732-.054-1.36.537-1.412 1.29v.053c0 .645.262 1.021 1.098 1.29.209.053.418.16.627.268a.568.568 0 01.261.484c0 .376-.313.698-.627.698h-.052a1.03 1.03 0 01-.94-.644l-.576.59c.314.592.941.914 1.568.914.836.054 1.516-.591 1.568-1.45v-.162c-.052-.645-.313-.967-1.359-1.397zm-3.031 2.954h.888V9.541h-.888v4.781zM3.625 9.541h1.567c1.255.053 2.248 1.128 2.196 2.417 0 .699-.314 1.343-.836 1.827-.47.376-1.045.591-1.62.537H3.625V9.541zm1.15 3.975c.418.054.888-.107 1.202-.376.313-.322.47-.752.47-1.236 0-.43-.157-.86-.47-1.181-.314-.27-.784-.43-1.202-.377h-.262v3.17h.262z" fill="#000"/><path fill-rule="evenodd" clip-rule="evenodd" d="M18.572 9.43c-1.306 0-2.404 1.074-2.404 2.471 0 1.343 1.045 2.472 2.404 2.525 1.359.054 2.404-1.074 2.457-2.471-.053-1.397-1.098-2.525-2.457-2.525z" fill="#FD6020"/></svg>