<svg width="35" height="25" fill="none" xmlns="http://www.w3.org/2000/svg"><rect x=".875" y=".93" width="33" height="23" rx="3.5" fill="#fff" stroke="#D9D9D9"/><path d="M20.259 5.479c-3.966 0-7.109 3.122-7.109 6.95 0 3.828 3.194 6.95 7.109 6.95s7.108-3.122 7.108-6.95c.052-3.828-3.194-6.95-7.108-6.95zm0 9.518c-1.442 0-2.679-1.158-2.679-2.568 0-1.41 1.185-2.569 2.679-2.569 1.494 0 2.678 1.159 2.678 2.569a2.655 2.655 0 01-2.678 2.569zM13.15 7.543v10.123h-2.524L7.381 7.543h5.769z" fill="#8B3FFD"/></svg>