<svg width="35" height="25" fill="none" xmlns="http://www.w3.org/2000/svg"><rect x=".875" y=".93" width="33" height="23" rx="3.5" fill="#fff" stroke="#E2E2E2"/><path fill-rule="evenodd" clip-rule="evenodd" d="M12.918 16.584c.154-.08.416-.186.694-.186.637 0 .981.43.981 1.231 0 .935-.462 1.39-1.207 1.39-.273 0-.694-.085-1.002-.245v-3.49l.534-.126v1.426zm-.005 2.005c.164.07.344.08.473.08.38 0 .668-.23.668-1.04 0-.635-.237-.84-.58-.84-.207 0-.355.055-.56.165v1.635zm-5.472-2.126h.036l.698 2.496h.555l.833-3.546H8.96l-.524 2.646H8.4l-.714-2.646H7.23l-.668 2.646h-.036l-.576-2.646h-.575l.832 3.546h.555l.679-2.496zm4.398 2.326v-.38c-.282.165-.54.26-.816.26-.53 0-.781-.265-.781-.865h1.674v-.185c0-.815-.395-1.22-1.037-1.22-.771 0-1.167.55-1.167 1.31 0 .79.355 1.31 1.218 1.31.37 0 .678-.1.91-.23zm-.41-1.32h-1.177c.056-.5.298-.735.611-.735.278 0 .54.21.565.735zm5.528.74h-.026l-1.151-2.796h-.622v3.546h.463v-2.51h.046l1.048 2.51h.329l1.048-2.57h.047v2.57h.554v-3.546h-.637l-1.1 2.796zm2.302-.5c0-.875.493-1.31 1.171-1.31s1.172.434 1.172 1.31c0 .855-.468 1.31-1.172 1.31s-1.171-.455-1.171-1.31zm1.803 0c0-.675-.283-.96-.632-.96-.339 0-.632.285-.632.96 0 .685.267.96.632.96s.632-.275.632-.96zm2.338-1.31a2.68 2.68 0 00-1.31.37v2.19h.534v-1.98c.16-.09.421-.18.627-.18.262 0 .462.07.462.465v1.695h.534v-1.81c0-.515-.23-.75-.847-.75zm3.452 2.01v.38c-.23.13-.539.23-.909.23-.863 0-1.218-.52-1.218-1.31 0-.76.396-1.31 1.167-1.31.642 0 1.038.405 1.038 1.22v.185h-1.675c0 .6.252.865.78.865.278 0 .535-.095.817-.26zm-1.587-.94h1.177c-.026-.525-.288-.735-.566-.735-.313 0-.554.235-.61.735zm4.213-.986h-.55l-.585 1.84h-.031l-.658-1.84h-.565l.987 2.501c-.124.37-.34.64-.689.64v.41c.59 0 .904-.36 1.161-1.05l.93-2.5zM17.081 4.93a4.572 4.572 0 012.254.588l-.414.361-.623-.627-1.051.913-.625-.663-1.958 1.718 1.255 1.346-.493.423 1.237 1.348-.49.422 1.766 1.914 1.049-.94.907 1.008c-.18.136-.377.264-.593.383a4.563 4.563 0 01-2.22.573c-2.48 0-4.504-1.97-4.504-4.384 0-2.414 2.023-4.383 4.503-4.383zm-.82 4.106l1.07-.939.965 1.043-1.071.938-.964-1.042zm1.832.863l-1.07.938.964 1.043 1.07-.939-.964-1.042zm-2.599-2.643l1.071-.938.964 1.042-1.07.938-.965-1.042zm2.769-1.209l-.804.704.724.782.803-.704-.723-.782zm.623 3.928l.804-.704.723.782-.803.704-.723-.782zm1.51.875l-.803.704.723.782.803-.704-.723-.782zm-.48-2.915l.536-.47.482.522-.535.47-.483-.522zm-.148-2.018l-.536.47.482.52.536-.469-.482-.52zm.833 3.566l.535-.469.483.521-.536.47-.482-.522zM19.003 7.62l-.803.704.723.782.803-.704-.723-.782z" fill="#0068A3"/></svg>