<svg width="35" height="25" fill="none" xmlns="http://www.w3.org/2000/svg"><rect x=".875" y=".93" width="33" height="23" rx="3.5" fill="#fff" stroke="#E2E2E2"/><path fill-rule="evenodd" clip-rule="evenodd" d="M10.09 11.997c0 3.872 3.067 7.03 6.865 7.03.466 0 .933-.042 1.468-.09.598-.054 1.281-.116 2.148-.136 1.314 0 2.738.489 4.309 1.917.146.15.365-.037.219-.225-1.57-1.992-2.995-2.368-4.419-2.707-1.753-.413-2.666-1.39-3.287-2.518-.11-.226-.182-.188-.182.112-.037.451 0 .865.073 1.278h-.22c-2.482 0-4.527-2.105-4.527-4.661 0-2.556 2.045-4.661 4.528-4.661 2.483 0 4.528 2.105 4.528 4.661 0 .15 0 .338-.036.526-.366-.075-.986-.075-1.461-.037-.183 0-.183.075-.037.112 1.461.301 2.483 1.241 2.74 2.97 0 .075.036.075.072.038a7.46 7.46 0 00.95-3.609c0-3.91-3.068-7.067-6.866-7.067-3.798 0-6.865 3.195-6.865 7.067zm11.832 2.895c.255.112.365.488.365.676.036.301-.037.451-.146.451-.11 0-.256-.112-.402-.375-.146-.264-.219-.527-.146-.677.11-.075.22-.113.329-.075zm-1.498 1.165c.146 0 .33.075.512.226.292.263.401.563.255.789-.073.113-.255.188-.401.188a.683.683 0 01-.475-.188c-.292-.263-.365-.64-.183-.865.037-.075.146-.15.292-.15z" fill="#F28A1A"/></svg>