<svg width="35" height="25" fill="none" xmlns="http://www.w3.org/2000/svg"><rect x=".875" y=".93" width="33" height="23" rx="3.5" fill="#fff" stroke="#E2E2E2"/><path fill-rule="evenodd" clip-rule="evenodd" d="M14.988 18.879l.22-1.45-.49-.011h-2.349l1.632-10.694a.143.143 0 01.045-.083.13.13 0 01.087-.034h3.96c1.314 0 2.22.283 2.694.841.222.262.364.535.432.836.072.316.073.694.003 1.154l-.005.033v.295l.222.13c.187.103.336.22.45.354.19.224.312.509.364.846.054.347.036.76-.052 1.227-.101.537-.265 1.005-.486 1.388a2.821 2.821 0 01-.77.873 3.095 3.095 0 01-1.038.484 5.018 5.018 0 01-1.296.154h-.308a.916.916 0 00-.603.23.972.972 0 00-.314.579l-.023.13-.39 2.554-.018.094c-.004.03-.012.045-.024.055a.064.064 0 01-.04.015h-1.903z" fill="#28356A"/><path fill-rule="evenodd" clip-rule="evenodd" d="M21.65 9.504a7.294 7.294 0 01-.041.24c-.522 2.77-2.309 3.728-4.59 3.728h-1.161a.57.57 0 00-.558.493l-.763 5.004a.304.304 0 00.293.355h2.06a.501.501 0 00.49-.432l.02-.108.388-2.544.025-.14a.5.5 0 01.49-.433h.308c1.996 0 3.558-.837 4.015-3.261.19-1.013.092-1.858-.413-2.453a1.976 1.976 0 00-.564-.45z" fill="#298FC2"/><path fill-rule="evenodd" clip-rule="evenodd" d="M21.104 9.28a3.984 3.984 0 00-.508-.117 6.253 6.253 0 00-1.024-.077H16.47a.48.48 0 00-.214.05.51.51 0 00-.275.383l-.66 4.321-.02.126a.57.57 0 01.558-.494h1.162c2.281 0 4.067-.957 4.59-3.727.015-.082.028-.162.04-.24a2.728 2.728 0 00-.546-.225z" fill="#22284F"/><path fill-rule="evenodd" clip-rule="evenodd" d="M15.98 9.519a.508.508 0 01.275-.382.48.48 0 01.214-.05h3.103c.367 0 .71.024 1.024.077a4.544 4.544 0 01.508.116l.117.038c.154.052.297.115.43.187.154-1.024-.002-1.721-.538-2.352-.59-.695-1.656-.993-3.02-.993h-3.959a.572.572 0 00-.559.494l-1.649 10.804a.348.348 0 00.336.407h2.444l1.274-8.346z" fill="#28356A"/></svg>