<svg width="35" height="25" fill="none" xmlns="http://www.w3.org/2000/svg"><rect x=".875" y=".93" width="33" height="23" rx="3.5" fill="#fff" stroke="#D9D9D9"/><path d="M15.928 11.106a.944.944 0 110-1.888.944.944 0 010 1.888zm1.447-6.223a7.546 7.546 0 00-7.547 7.546 7.55 7.55 0 005.942 7.376v-6.772a.617.617 0 01.593-.603h.953c.044 0 .08-.035.082-.079l.001-7.467-.024-.001zm5.2 11.663a.944.944 0 11.001-1.888.944.944 0 010 1.888zm-2.211 0a.943.943 0 11.001-1.886.943.943 0 01-.001 1.886zm-2.212 0a.944.944 0 110-1.884.944.944 0 010 1.884zm.154-11.606v7.786l-.002.002a.615.615 0 01-.615.609h-.929a.083.083 0 00-.084.083v6.525a7.547 7.547 0 001.63-15.005" fill="#00985F"/></svg>