<svg width="35" height="25" fill="none" xmlns="http://www.w3.org/2000/svg"><rect x="1.125" y=".93" width="33" height="23" rx="3.5" fill="#fff" stroke="#E2E2E2"/><path fill-rule="evenodd" clip-rule="evenodd" d="M11.376 16.288h-2.06l-1.544-6.066c-.074-.28-.23-.526-.458-.642a6.573 6.573 0 00-1.888-.642v-.234h3.318c.458 0 .801.351.859.758l.8 4.376 2.06-5.134h2.002l-3.089 7.584zm4.234 0h-1.945l1.602-7.584h1.945l-1.602 7.584zm4.119-5.483c.057-.408.4-.642.8-.642a3.535 3.535 0 011.889.35l.343-1.633a4.801 4.801 0 00-1.773-.35c-1.888 0-3.262 1.05-3.262 2.508 0 1.109.973 1.69 1.66 2.042.743.35 1.03.583.972.933 0 .524-.572.758-1.144.758a4.789 4.789 0 01-2.002-.467l-.344 1.634c.687.29 1.43.408 2.117.408 2.117.058 3.433-.992 3.433-2.567 0-1.983-2.69-2.1-2.69-2.974zm9.497 5.483L27.68 8.704h-1.659a.862.862 0 00-.801.584l-2.86 7h2.002l.4-1.108h2.46l.23 1.108h1.773zm-2.918-5.542l.572 2.858h-1.602l1.03-2.858z" fill="#172B85"/></svg>