<svg width="51" height="17" fill="none" xmlns="http://www.w3.org/2000/svg"><path d="M22.177 16.27h-4.005L20.677.78h4.004l-2.504 15.49zm14.52-15.11A9.87 9.87 0 0033.105.5c-3.955 0-6.74 2.109-6.757 5.124-.033 2.225 1.994 3.46 3.51 4.202 1.55.758 2.076 1.253 2.076 1.928-.016 1.038-1.252 1.516-2.405 1.516-1.599 0-2.456-.246-3.758-.824l-.527-.247-.56 3.477c.939.428 2.67.807 4.466.824 4.202 0 6.938-2.076 6.97-5.29.016-1.763-1.054-3.114-3.361-4.218-1.401-.708-2.259-1.186-2.259-1.911.017-.66.726-1.335 2.307-1.335a6.805 6.805 0 012.983.593l.362.165.545-3.345zm5.323 9.623c.33-.89 1.6-4.334 1.6-4.334-.017.033.328-.906.526-1.483l.28 1.335s.758 3.707.923 4.482H42.02zM46.964.78h-3.098c-.955 0-1.681.28-2.093 1.285L35.824 16.27h4.202l.84-2.324h5.143c.115.544.478 2.324.478 2.324h3.708L46.964.78zM14.829.781l-3.922 10.562-.429-2.142C9.753 6.729 7.48 4.044 4.941 2.709l3.593 13.544h4.235L19.064.781h-4.235z" fill="#00579F"/><path d="M7.263.781H.82l-.066.313C5.78 2.38 9.109 5.478 10.476 9.202l-1.4-7.119c-.23-.989-.94-1.27-1.813-1.302z" fill="#00579F"/></svg>