<svg width="65" height="17" fill="none" xmlns="http://www.w3.org/2000/svg"><path fill-rule="evenodd" clip-rule="evenodd" d="M5.722.5C4.529.5 3.115 1.647 1.949 3.574.733 5.571.008 8.042.008 10.188c0 3.143 1.763 6.311 5.714 6.311 3.946 0 5.714-3.168 5.714-6.31 0-2.147-.725-4.618-1.934-6.615C8.324 1.647 6.91.5 5.722.5zm30.855 4.714h4v10.428h4.286V5.214h3.998V1.357H36.578v3.857zm21.427 0h6.286V1.357h-6.286c-5.774 0-8.858 2.87-8.858 7.142 0 4.271 3.084 7.143 8.858 7.143h6.286v-3.857h-6.286c-2.672 0-4.429-.955-4.429-3.285s1.757-3.286 4.43-3.286zM27.861 1.357l-2.284 8.526-2.285-8.526h-7.57v14.285h4.284V4.022l3.113 11.62h4.915l3.115-11.626v11.626h4.286V1.357H27.86z" fill="#E30613"/></svg>