<svg width="49" height="17" fill="none" xmlns="http://www.w3.org/2000/svg"><path d="M50.61 5.644c-.361-.252-.773-.403-1.288-.453-.876-.1-1.7.201-2.215.806v-.705h-1.752v6.245h1.752V8.263c0-.755.154-.906.257-1.108.206-.352.618-.554 1.082-.503.464 0 .927.201 1.133.554.155.251.155.554.155.755v3.576h1.751V7.76c0-1.008-.31-1.662-.876-2.116zm-8.602-.304c-.875-.301-1.803-.251-2.678.152-.618.252-1.082.705-1.442 1.259-.31.504-.464 1.058-.464 1.712 0 .655.154 1.21.464 1.713.309.504.72.856 1.236 1.158a4.006 4.006 0 001.7.403c.309 0 .618-.05.927-.1.257-.05.515-.152.772-.303.515-.302.927-.654 1.236-1.108.31-.503.464-1.057.464-1.712-.051-1.511-.876-2.67-2.215-3.173zm.464 3.123c0 .554-.206 1.008-.567 1.31-.258.252-.618.353-1.133.353a2.01 2.01 0 01-1.133-.353c-.36-.302-.515-.756-.567-1.31 0-.604.206-1.158.67-1.51.257-.202.567-.303.979-.303.412 0 .72.101.978.302.567.353.824.907.773 1.511zm-7.056-2.82c-.309-.252-.772-.403-1.287-.453h-.31c-.72 0-1.287.302-1.802.906l-.103.1h-.206c-.155-.2-.31-.402-.515-.503-.31-.302-.722-.453-1.237-.503-.824-.101-1.494.15-2.06.755V5.29h-1.752v6.246h1.752V8.212c0-.706.103-.857.206-1.058.206-.353.618-.554 1.03-.554.412 0 .824.201 1.03.554.155.252.155.554.155.856v3.475h1.803V8.161c0-.604.103-.856.206-1.058.206-.352.618-.503 1.03-.503.412 0 .773.252.979.554.103.201.154.453.154.655v3.727h1.752V7.758c0-.352-.052-.655-.103-.957-.103-.503-.361-.906-.722-1.158z" fill="#000"/><path d="M13.987 1.21c-3.966 0-7.108 3.124-7.108 6.951 0 3.828 3.194 6.95 7.108 6.95 3.915 0 7.109-3.122 7.109-6.95.051-3.827-3.194-6.95-7.109-6.95zm0 9.52c-1.442 0-2.678-1.158-2.678-2.569 0-1.41 1.184-2.568 2.678-2.568s2.679 1.158 2.679 2.568a2.655 2.655 0 01-2.679 2.569z" fill="#8B3FFD"/><path d="M6.879 3.275V13.4H4.354L1.11 3.275h5.77z" fill="#8B3FFD"/></svg>