<svg width="41" height="40" fill="none" xmlns="http://www.w3.org/2000/svg"><path d="M.5 16c0-8.837 7.163-16 16-16h8c8.837 0 16 7.163 16 16v8c0 8.837-7.163 16-16 16h-8c-8.837 0-16-7.163-16-16v-8z" fill="#FFC043"/><circle cx="20.5" cy="20" r="14.5" stroke="#fff" stroke-width="3"/><path d="M20.994 27.868l6.68-6.68c1.641-1.641 1.883-4.342.33-6.067a4.286 4.286 0 00-6.221-.167l-1.256 1.256-1.084-1.084c-1.641-1.642-4.342-1.884-6.067-.33a4.286 4.286 0 00-.167 6.22l6.852 6.852c.124.124.45.434.45.434s.359-.31.483-.434z" fill="#fff"/></svg>